<svg width="12" height="8" viewBox="0 0 12 8" fill="none" xmlns="http://www.w3.org/2000/svg">
<path fill-rule="evenodd" clip-rule="evenodd" d="M6.88337 7.3843C6.649 7.61838 6.33129 7.74987 6.00004 7.74987C5.66879 7.74987 5.35108 7.61838 5.11671 7.3843L0.401706 2.67097C0.167321 2.43647 0.0356885 2.11847 0.0357666 1.78692C0.0358448 1.45537 0.167627 1.13743 0.402122 0.903049C0.636618 0.668664 0.954618 0.537031 1.28617 0.537109C1.61772 0.537188 1.93565 0.66897 2.17004 0.903465L6.00004 4.73347L9.83004 0.903465C10.0657 0.675654 10.3814 0.54951 10.7091 0.552203C11.0369 0.554895 11.3505 0.686208 11.5823 0.91786C11.8142 1.14951 11.9458 1.46297 11.9488 1.79071C11.9518 2.11846 11.826 2.43427 11.5984 2.67013L6.88421 7.38513L6.88337 7.3843Z" fill="black"/>
</svg>
